<?xml version="1.0" encoding="UTF-8"?>
<svg version="1.1" xmlns="http://www.w3.org/2000/svg" width="500" height="500">
<path d="M0 0 C20.13 0 40.26 0 61 0 C60.38799182 6.12008184 59.84463567 11.3778552 58.49365234 17.23461914 C58.27156853 18.20998878 58.27156853 18.20998878 58.04499817 19.20506287 C57.72779241 20.59580196 57.40799575 21.98595235 57.08576584 23.37553596 C56.57495446 25.58261092 56.07331256 27.79159567 55.5741272 30.00132751 C54.15546228 36.27648463 52.72519465 42.54891218 51.27832031 48.81762695 C50.38950977 52.67139193 49.51490245 56.52815937 48.64891434 60.38711357 C48.31856378 61.84623007 47.98291113 63.30415754 47.64164352 64.76075935 C45.85922521 72.37425941 44.25713135 79.23268789 46 87 C46.66 87.66 47.32 88.32 48 89 C49.67763579 94.03290737 49.59696096 98.24978787 47.375 103.0625 C45.16292252 107.11534195 42.47748549 109.97609957 39 113 C38.34 113 37.68 113 37 113 C36.18427743 117.02018644 35.37300025 121.04125772 34.5625 125.0625 C34.33240234 126.19623047 34.10230469 127.32996094 33.86523438 128.49804688 C32.76116107 133.98641129 31.70144749 139.44485836 31 145 C32.01707031 145.49306641 32.01707031 145.49306641 33.0546875 145.99609375 C43.37626236 151.27124766 52.83796172 158.0949043 57.25 169.125 C58.62972416 176.25357485 59.09107855 183.30266314 56 190 C55.34 188.68 54.68 187.36 54 186 C53.01 193.425 53.01 193.425 52 201 C51.01 201 50.02 201 49 201 C48.85304688 200.38253906 48.70609375 199.76507813 48.5546875 199.12890625 C44.48167464 183.74977148 33.85754934 174.97342261 20.56640625 167.01953125 C20.01136414 166.71299622 19.45632202 166.40646118 18.88446045 166.09063721 C17 165 17 165 14.86798096 163.51239014 C7.01432865 158.4562674 -0.22009362 158.19371319 -9.23972511 158.33325005 C-11.75909053 158.37189224 -14.27619634 158.37310172 -16.79582214 158.36549377 C-22.13507834 158.35623352 -27.4734451 158.394974 -32.8125 158.4375 C-39.02221869 158.48232848 -45.23116693 158.50715513 -51.44104576 158.49293709 C-53.9155142 158.49604166 -56.3883158 158.52969102 -58.86250305 158.56504822 C-60.38335126 158.56617001 -61.90420122 158.56596123 -63.42504883 158.56420898 C-64.10620255 158.58226089 -64.78735626 158.60031281 -65.489151 158.61891174 C-71.00536562 158.5619049 -73.25375992 156.74721154 -77 153 C-80.59809232 145.80381535 -76.59059179 135.54844495 -74.9375 128.21875 C-74.62288406 126.7954498 -74.30901245 125.37198488 -73.99584961 123.94836426 C-73.17468031 120.22480772 -72.34349973 116.50355741 -71.51013184 112.78271484 C-70.65948746 108.97628991 -69.81844414 105.16774574 -68.9765625 101.359375 C-67.32703639 93.90415683 -65.66691592 86.45135153 -64 79 C-59.74302712 79 -58.66265422 79.50669448 -55.1484375 81.6328125 C-54.21386719 82.19226563 -53.27929688 82.75171875 -52.31640625 83.328125 C-51.34574219 83.92109375 -50.37507813 84.5140625 -49.375 85.125 C-47.95380859 85.97964844 -47.95380859 85.97964844 -46.50390625 86.8515625 C-44.60809563 87.9926797 -42.71451476 89.13750996 -40.82324219 90.28613281 C-36.55917346 92.87466295 -32.27924373 95.43666171 -28 98 C-28.54173404 107.97886275 -30.73534035 117.28387958 -33 127 C-23.1 126.505 -23.1 126.505 -13 126 C-12.34 123.03 -11.68 120.06 -11 117 C-10.01 116.67 -9.02 116.34 -8 116 C-7.505 114.515 -7.505 114.515 -7 113 C-4.9375 112.3125 -4.9375 112.3125 -3 112 C-2.8984964 111.3305687 -2.7969928 110.66113739 -2.69241333 109.97142029 C-1.38067255 101.69624534 0.34688846 93.53716633 2.17459488 85.36476326 C2.70732859 82.98139821 3.23567368 80.59709621 3.76290894 78.21250916 C5.26049921 71.44264589 6.76558959 64.67445894 8.27392578 57.90698242 C9.20136292 53.74443042 10.12369394 49.58077307 11.04296494 45.41641045 C11.39261674 43.83754695 11.74427198 42.25912572 12.09799576 40.68116951 C12.59109635 38.48126322 13.07772997 36.28001649 13.56298828 34.07836914 C13.84119415 32.8288295 14.11940002 31.57928986 14.40603638 30.29188538 C15.44320981 24.9384496 15.44320981 24.9384496 13.83837891 19.95117188 C13.30647949 19.29697266 12.77458008 18.64277344 12.2265625 17.96875 C11.6490625 17.24042969 11.0715625 16.51210937 10.4765625 15.76171875 C9.86554688 15.01535156 9.25453125 14.26898438 8.625 13.5 C7.42441602 12.01466213 6.22892591 10.52518961 5.0390625 9.03125 C4.50490723 8.37705078 3.97075195 7.72285156 3.42041016 7.04882812 C2 5 2 5 0 0 Z M44 90 C43.67 91.32 43.34 92.64 43 94 C43.66 93.67 44.32 93.34 45 93 C44.67 92.01 44.34 91.02 44 90 Z M42 94 C43 96 43 96 43 96 Z M31 159 C31.99 159.99 32.98 160.98 34 162 C34.66 161.67 35.32 161.34 36 161 C33.525 160.01 33.525 160.01 31 159 Z M36 162 C36.33 162.66 36.66 163.32 37 164 C37.66 163.67 38.32 163.34 39 163 C38.01 162.67 37.02 162.34 36 162 Z M40 165 C40.99 166.485 40.99 166.485 42 168 C42.66 167.67 43.32 167.34 44 167 C42.68 166.34 41.36 165.68 40 165 Z M46 170 C46.33 170.99 46.66 171.98 47 173 C47 172.01 47 171.02 47 170 C46.67 170 46.34 170 46 170 Z M49 174 C50 176 50 176 50 176 Z M50 176 C51 178 51 178 51 178 Z M51 178 C52 180 52 180 52 180 Z M52 180 C53 183 53 183 53 183 Z " fill="#1B92C7" transform="translate(311,145)"/>
<path d="M0 0 C22.11 0 44.22 0 67 0 C67.11329802 29.68408249 66.68600472 59.3248222 66 89 C64.41276021 88.21780109 62.82683371 87.43293696 61.24145508 86.64697266 C60.35815018 86.21019196 59.47484528 85.77341125 58.56477356 85.32339478 C55.12410804 83.54804944 51.90692376 81.51881835 48.6875 79.375 C42.28177159 74.37401726 42.28177159 74.37401726 35 72 C30.05 94.44 25.1 116.88 20 140 C15.92178748 137.96089374 14.16483987 136.24150397 11.1875 132.875 C10.74591553 132.3785498 10.30433105 131.88209961 9.84936523 131.37060547 C8.56054435 129.9187763 7.28008564 128.4595369 6 127 C5.09894531 125.98679687 5.09894531 125.98679687 4.1796875 124.953125 C2.43652221 122.98259032 0.71673087 120.99362295 -1 119 C-1.45117188 118.48050781 -1.90234375 117.96101563 -2.3671875 117.42578125 C-3.89593528 115.66336477 -5.41731087 113.89480132 -6.9375 112.125 C-7.43499756 111.55281738 -7.93249512 110.98063477 -8.44506836 110.39111328 C-12 106.22824042 -12 106.22824042 -12 104 C-0.45 104 11.1 104 23 104 C23.33 84.53 23.66 65.06 24 45 C17.13300943 62.02282971 17.13300943 62.02282971 10.26782227 79.04638672 C9.40908253 81.17418012 8.55028144 83.30194877 7.69140625 85.4296875 C7.24309448 86.542229 6.79478271 87.65477051 6.33288574 88.80102539 C5.90664917 89.85652588 5.4804126 90.91202637 5.04125977 91.99951172 C4.67041763 92.91884491 4.2995755 93.8381781 3.91749573 94.78536987 C3.32675518 96.21128585 2.69024789 97.61950421 2 99 C-7.24 99.33 -16.48 99.66 -26 100 C-23.7725 102.413125 -23.7725 102.413125 -21.5 104.875 C-20.11493583 106.40193428 -18.73854944 107.93607899 -17.36474609 109.47314453 C-16.08780593 110.90176417 -14.8039186 112.3241657 -13.51953125 113.74609375 C-12.79121094 114.59300781 -12.06289062 115.43992187 -11.3125 116.3125 C-10.64863281 117.07175781 -9.98476562 117.83101563 -9.30078125 118.61328125 C-7.52390613 121.87355361 -8.16825492 123.40739357 -9 127 C-9.91326434 129.41873432 -10.85983445 131.75516251 -11.90625 134.11328125 C-12.19101196 134.76830124 -12.47577393 135.42332123 -12.76916504 136.09819031 C-13.36784759 137.47187313 -13.96974725 138.84415793 -14.57470703 140.21508789 C-15.50360143 142.32066356 -16.42251614 144.43037849 -17.33984375 146.54101562 C-17.92390729 147.87785417 -18.50852304 149.21445161 -19.09375 150.55078125 C-19.36981079 151.18301102 -19.64587158 151.81524078 -19.93029785 152.46662903 C-21.88295829 156.88295829 -21.88295829 156.88295829 -23 158 C-24.35094982 158.09268999 -25.70667091 158.11747326 -27.06079102 158.11352539 C-27.92160782 158.11344986 -28.78242462 158.11337433 -29.66932678 158.11329651 C-30.60473801 158.10813522 -31.54014923 158.10297394 -32.50390625 158.09765625 C-33.45692123 158.0962413 -34.40993622 158.09482635 -35.39183044 158.09336853 C-38.44875165 158.08775152 -41.50560077 158.07519616 -44.5625 158.0625 C-46.62955624 158.05748719 -48.69661362 158.05292391 -50.76367188 158.04882812 C-55.84247588 158.03777656 -60.9212257 158.02050055 -66 158 C-65.3041883 153.20393277 -63.48212157 149.05667188 -61.58984375 144.63671875 C-61.23529114 143.79840515 -60.88073853 142.96009155 -60.51544189 142.09637451 C-59.32749298 139.29139778 -58.13256159 136.489453 -56.9375 133.6875 C-56.08668687 131.68315505 -55.23618976 129.67867592 -54.38598633 127.67407227 C-46.69755488 109.56581739 -38.93279435 91.49000994 -31.17163086 73.4128418 C-20.68623201 48.98153628 -10.34138953 24.49276469 0 0 Z " fill="#090909" transform="translate(210,145)"/>
<path d="M0 0 C20.13 0 40.26 0 61 0 C60.39448822 6.05511778 59.84265718 11.40125502 58.57299805 17.23461914 C58.43297363 17.88486557 58.29294922 18.535112 58.14868164 19.20506287 C57.69223524 21.31642199 57.2274854 23.42583516 56.76171875 25.53515625 C56.43620799 27.02383218 56.1109202 28.51255687 55.7858429 30.00132751 C55.10638207 33.10601744 54.4224425 36.20968026 53.7355957 39.31274414 C52.86111113 43.26644415 52.00070097 47.22305936 51.14398479 51.18064213 C50.47718876 54.25096841 49.80147943 57.31928348 49.12330055 60.38711357 C48.80254239 61.84431893 48.4848013 63.30219215 48.17029381 64.76075935 C46.48208251 72.57043307 44.59768127 79.8209883 41 87 C40.34 87 39.68 87 39 87 C39 87.66 39 88.32 39 89 C38.34 89 37.68 89 37 89 C36.71125 89.61875 36.4225 90.2375 36.125 90.875 C35 93 35 93 33 95 C30.34462628 95.56520003 27.70855287 95.73788198 25 96 C24.67 96.99 24.34 97.98 24 99 C21.82275391 100.44213867 21.82275391 100.44213867 18.9765625 101.91796875 C17.955625 102.44970703 16.9346875 102.98144531 15.8828125 103.52929688 C14.27019531 104.35010742 14.27019531 104.35010742 12.625 105.1875 C11.55765625 105.74630859 10.4903125 106.30511719 9.390625 106.88085938 C1.40381754 111 1.40381754 111 -2 111 C-2.16649854 105.85568484 -1.59401461 101.20594965 -0.43945312 96.21630859 C-0.27364243 95.47229294 -0.10783173 94.72827728 0.06300354 93.9617157 C0.42146247 92.35794215 0.78334617 90.75493092 1.14833069 89.15262985 C1.72636813 86.61499321 2.29536465 84.07547343 2.86218262 81.53530884 C3.86214372 77.06097636 4.87003522 72.58847468 5.8805542 68.11651611 C7.49921626 60.95271239 9.11115423 53.78743491 10.71290588 46.61983109 C11.27336509 44.12109142 11.84049766 41.62393012 12.40808105 39.12680054 C12.75215661 37.59289834 13.09596181 36.05893547 13.43945312 34.52490234 C13.59841568 33.83386917 13.75737823 33.142836 13.92115784 32.43086243 C15.49470626 26.03170463 15.49470626 26.03170463 13.83837891 19.95117188 C13.04052979 18.96987305 13.04052979 18.96987305 12.2265625 17.96875 C11.6490625 17.24042969 11.0715625 16.51210937 10.4765625 15.76171875 C9.86554688 15.01535156 9.25453125 14.26898438 8.625 13.5 C7.42441602 12.01466213 6.22892591 10.52518961 5.0390625 9.03125 C4.50490723 8.37705078 3.97075195 7.72285156 3.42041016 7.04882812 C2 5 2 5 0 0 Z " fill="#1C91C7" transform="translate(311,145)"/>
<path d="M0 0 C0.66 0.33 1.32 0.66 2 1 C2.34153937 2.66500443 2.67449498 4.33178677 3 6 C3.66 6.66 4.32 7.32 5 8 C6.67763579 13.03290737 6.59696096 17.24978787 4.375 22.0625 C2.16292252 26.11534195 -0.52251451 28.97609957 -4 32 C-4.66 32 -5.32 32 -6 32 C-6.33 34.31 -6.66 36.62 -7 39 C-7.495 37.02 -7.495 37.02 -8 35 C-8.6084375 35.3403125 -9.216875 35.680625 -9.84375 36.03125 C-12.88309235 37.71182753 -15.94021935 39.35691151 -19 41 C-19.97936523 41.53729736 -19.97936523 41.53729736 -20.97851562 42.08544922 C-23.05943926 43.22170426 -25.15295713 44.33132455 -27.25 45.4375 C-27.91064453 45.80359375 -28.57128906 46.1696875 -29.25195312 46.546875 C-33.86400101 48.93830724 -36.79355524 49.33531505 -42 48 C-44.4375 46.5625 -44.4375 46.5625 -46 45 C-46 44.34 -46 43.68 -46 43 C-45.47043701 42.76812988 -44.94087402 42.53625977 -44.39526367 42.29736328 C-41.99137496 41.24284584 -39.58942866 40.18397389 -37.1875 39.125 C-36.35412109 38.76019531 -35.52074219 38.39539063 -34.66210938 38.01953125 C-33.85966797 37.66503906 -33.05722656 37.31054688 -32.23046875 36.9453125 C-31.12288208 36.45828857 -31.12288208 36.45828857 -29.99291992 35.96142578 C-27.76561139 34.94346144 -27.76561139 34.94346144 -25 33 C-24.01 33 -23.02 33 -22 33 C-22 32.34 -22 31.68 -22 31 C-12.58997722 25.62870159 -12.58997722 25.62870159 -8 24 C-8 23.34 -8 22.68 -8 22 C-6.70766393 20.62689293 -5.37562854 19.28965176 -4 18 C-5.60875 18.928125 -5.60875 18.928125 -7.25 19.875 C-9.79780984 21.3323679 -12.35259355 22.72924491 -15 24 C-15 24.66 -15 25.32 -15 26 C-15.79535156 26.391875 -16.59070313 26.78375 -17.41015625 27.1875 C-20.12635512 28.54520105 -22.81400891 29.95114252 -25.49609375 31.375 C-26.30240234 31.80296875 -27.10871094 32.2309375 -27.93945312 32.671875 C-29.60177309 33.55567295 -31.26323617 34.44108452 -32.92382812 35.328125 C-36.56054632 37.25532443 -40.16556626 39.11854135 -43.97265625 40.6875 C-47.04364244 41.79864876 -47.04364244 41.79864876 -49 44 C-50.89865603 41.02819057 -52.35455571 38.48539917 -53 35 C-52.34 35 -51.68 35 -51 35 C-50.67 34.01 -50.34 33.02 -50 32 C-48.66666667 31.66666667 -47.33333333 31.33333333 -46 31 C-45.67 30.01 -45.34 29.02 -45 28 C-45 28.66 -45 29.32 -45 30 C-41.97691173 28.58811067 -38.95696642 27.16961649 -35.9375 25.75 C-35.08994141 25.35425781 -34.24238281 24.95851562 -33.36914062 24.55078125 C-24.52027959 21.07879315 -24.52027959 21.07879315 -18 15 C-16.0390625 14.2890625 -16.0390625 14.2890625 -13.625 13.625 C-9.83180246 12.45277572 -8.06223191 11.51792503 -6 8 C-5.34 8 -4.68 8 -4 8 C-4 7.34 -4 6.68 -4 6 C-3.34 6 -2.68 6 -2 6 C-1.34 4.02 -0.68 2.04 0 0 Z M1 9 C0.67 10.32 0.34 11.64 0 13 C0.66 12.67 1.32 12.34 2 12 C1.67 11.01 1.34 10.02 1 9 Z M-1 13 C0 15 0 15 0 15 Z " fill="#71797D" transform="translate(354,226)"/>
<path d="M0 0 C0.64757625 1.43671568 1.29299453 2.87440416 1.9375 4.3125 C2.29714844 5.11300781 2.65679687 5.91351563 3.02734375 6.73828125 C4 9 4 9 5 12 C5.33 8.37 5.66 4.74 6 1 C8.31 1 10.62 1 13 1 C13.33 1.66 13.66 2.32 14 3 C15.32 2.01 16.64 1.02 18 0 C18.99 0.66 19.98 1.32 21 2 C21.33 1.67 21.66 1.34 22 1 C23.99750448 1 25.99555281 1.00355875 27.9921875 1.0625 C30.20917431 1.0894741 30.20917431 1.0894741 33 0 C36.54737175 -0.25799067 39.1533707 -0.36904354 42.4375 1.0625 C44.76862974 3.95310088 44.19033239 6.38368464 44 10 C44.2475 10.721875 44.495 11.44375 44.75 12.1875 C44.8325 12.785625 44.915 13.38375 45 14 C43.14944202 16.23343204 41.59616917 17.70191542 39 19 C36.11629667 19.07194869 33.25760336 19.09291708 30.375 19.0625 C29.57320312 19.05798828 28.77140625 19.05347656 27.9453125 19.04882812 C25.96350994 19.03703168 23.98174567 19.01909605 22 19 C21.505 18.01 21.505 18.01 21 17 C19.02 17.99 19.02 17.99 17 19 C16.34 17.68 15.68 16.36 15 15 C14.34 15 13.68 15 13 15 C13 16.32 13 17.64 13 19 C8.38 19 3.76 19 -1 19 C-1 18.34 -1 17.68 -1 17 C-2.32 17 -3.64 17 -5 17 C-5 17.66 -5 18.32 -5 19 C-6.98 19 -8.96 19 -11 19 C-10.42656355 12.80688638 -9.35902388 6.79033135 -7 1 C-4.53721199 -0.231394 -2.7204945 -0.07159196 0 0 Z M21 5 C20.34 6.65 19.68 8.3 19 10 C19.99 10.99 20.98 11.98 22 13 C22 10.36 22 7.72 22 5 C21.67 5 21.34 5 21 5 Z M35 12 C35 12.66 35 13.32 35 14 C35.99 13.67 36.98 13.34 38 13 C37.01 12.67 36.02 12.34 35 12 Z " fill="#3F3F3F" transform="translate(173,318)"/>
<path d="M0 0 C2.0625 1.625 2.0625 1.625 3 4 C3.54440618 8.99039002 3.08139334 12.00560122 0 16 C-3.2908539 18.1939026 -4.1494598 18.20490753 -7.9375 18.0625 C-11.22523487 17.94844585 -13.82938998 18.18702307 -17 19 C-18.58211573 19.06548492 -20.16670081 19.08578381 -21.75 19.0625 C-23.85375 19.0315625 -23.85375 19.0315625 -26 19 C-26.495 12.565 -26.495 12.565 -27 6 C-27.639375 7.959375 -28.27875 9.91875 -28.9375 11.9375 C-30.875 17.875 -30.875 17.875 -32 19 C-33.99958364 19.04080783 -36.00045254 19.04254356 -38 19 C-39.03016022 16.37831689 -40.04938394 13.75326119 -41.0625 11.125 C-41.50432617 10.00544922 -41.50432617 10.00544922 -41.95507812 8.86328125 C-42.69520486 6.93024437 -43.35355735 4.96634968 -44 3 C-43.67 2.34 -43.34 1.68 -43 1 C-39.9375 0.375 -39.9375 0.375 -37 0 C-36.34 1.98 -35.68 3.96 -35 6 C-34.34 4.02 -33.68 2.04 -33 0 C-32.37955811 0.00523682 -31.75911621 0.01047363 -31.11987305 0.01586914 C-28.30909233 0.03665466 -25.49832779 0.04966517 -22.6875 0.0625 C-21.22280273 0.07506836 -21.22280273 0.07506836 -19.72851562 0.08789062 C-18.79072266 0.09111328 -17.85292969 0.09433594 -16.88671875 0.09765625 C-16.02264404 0.10289307 -15.15856934 0.10812988 -14.26831055 0.11352539 C-2.09592197 -0.4956836 -2.09592197 -0.4956836 0 0 Z M-20 6 C-16 7 -16 7 -16 7 Z M-7 6 C-7 7.65 -7 9.3 -7 11 C-5.68 10.67 -4.36 10.34 -3 10 C-3.33 8.68 -3.66 7.36 -4 6 C-4.99 6 -5.98 6 -7 6 Z M-19 12 C-15 13 -15 13 -15 13 Z " fill="#67B2D1" transform="translate(303,319)"/>
<path d="M0 0 C2.6399773 2.6399773 2.95162761 4.50660164 3.3125 8.1875 C2.67704697 15.94002698 -1.2592367 21.00803192 -7 26 C-7.66 26 -8.32 26 -9 26 C-9.33 28.31 -9.66 30.62 -10 33 C-10.495 31.02 -10.495 31.02 -11 29 C-11.91265625 29.51046875 -11.91265625 29.51046875 -12.84375 30.03125 C-15.88309235 31.71182753 -18.94021935 33.35691151 -22 35 C-22.65291016 35.35819824 -23.30582031 35.71639648 -23.97851562 36.08544922 C-26.05943926 37.22170426 -28.15295713 38.33132455 -30.25 39.4375 C-30.91064453 39.80359375 -31.57128906 40.1696875 -32.25195312 40.546875 C-36.86400101 42.93830724 -39.79355524 43.33531505 -45 42 C-47.4375 40.5625 -47.4375 40.5625 -49 39 C-49 38.34 -49 37.68 -49 37 C-48.47043701 36.76812988 -47.94087402 36.53625977 -47.39526367 36.29736328 C-44.99137496 35.24284584 -42.58942866 34.18397389 -40.1875 33.125 C-39.35412109 32.76019531 -38.52074219 32.39539063 -37.66210938 32.01953125 C-36.45844727 31.48779297 -36.45844727 31.48779297 -35.23046875 30.9453125 C-34.49207764 30.62062988 -33.75368652 30.29594727 -32.99291992 29.96142578 C-30.76561139 28.94346144 -30.76561139 28.94346144 -28 27 C-27.01 27 -26.02 27 -25 27 C-25 26.34 -25 25.68 -25 25 C-15.58997722 19.62870159 -15.58997722 19.62870159 -11 18 C-11 17.34 -11 16.68 -11 16 C-10.01 15.34 -9.02 14.68 -8 14 C-7.67 13.01 -7.34 12.02 -7 11 C-6.195625 10.236875 -5.39125 9.47375 -4.5625 8.6875 C-1.83508949 5.82704508 -0.96747167 3.78193472 0 0 Z " fill="#82898B" transform="translate(357,232)"/>
<path d="M0 0 C6.29020775 1.48978605 10.89532476 5.2336934 16 9 C16.9075 9.598125 17.815 10.19625 18.75 10.8125 C23.51946148 15.44947644 27.7810956 22.18699076 28.16796875 28.92578125 C28.17763672 30.60220703 28.17763672 30.60220703 28.1875 32.3125 C28.20167969 33.42238281 28.21585937 34.53226562 28.23046875 35.67578125 C27.99333157 39.0961836 27.22108501 41.80973443 26 45 C25.01 44.505 25.01 44.505 24 44 C23.359375 42.03125 23.359375 42.03125 22.75 39.5 C18.64582716 25.28702707 7.24917366 16.95232136 -5.01953125 9.82421875 C-7.88526096 8.07022691 -10.42675443 6.15467697 -13 4 C-9.0507432 4.55105909 -5.65079826 5.38935371 -2 7 C-1.34 4.69 -0.68 2.38 0 0 Z " fill="#40B8DE" transform="translate(336,302)"/>
<path d="M0 0 C0.66 0 1.32 0 2 0 C2 1.98 2 3.96 2 6 C2.67804688 6.32871094 3.35609375 6.65742188 4.0546875 6.99609375 C14.37626236 12.27124766 23.83796172 19.0949043 28.25 30.125 C29.62972416 37.25357485 30.09107855 44.30266314 27 51 C25.33350522 47.83290585 24.08147143 44.59350153 22.8125 41.25 C18.41989522 30.77140946 11.75462671 25.52712387 2 20 C1.27167969 19.70867187 0.54335938 19.41734375 -0.20703125 19.1171875 C-2 18 -2 18 -3.3671875 15.80078125 C-4.21365026 12.05439976 -3.3643498 9.796195 -2.125 6.1875 C-1.73570312 5.02605469 -1.34640625 3.86460937 -0.9453125 2.66796875 C-0.63335937 1.78753906 -0.32140625 0.90710938 0 0 Z " fill="#3FCCEE" transform="translate(340,284)"/>
<path d="M0 0 C2.33112974 2.89060088 1.75283239 5.32118464 1.5625 8.9375 C1.81 9.659375 2.0575 10.38125 2.3125 11.125 C2.43625 12.0221875 2.43625 12.0221875 2.5625 12.9375 C0.71194202 15.17093204 -0.84133083 16.63941542 -3.4375 17.9375 C-6.15725715 18.00937519 -8.84424632 18.0302862 -11.5625 18 C-14.16125 17.979375 -16.76 17.95875 -19.4375 17.9375 C-19.4375 11.9975 -19.4375 6.0575 -19.4375 -0.0625 C-17.1275 -0.0625 -14.8175 -0.0625 -12.4375 -0.0625 C-8.11405213 -1.50364929 -4.24412161 -1.85000173 0 0 Z M-7.4375 10.9375 C-7.4375 11.5975 -7.4375 12.2575 -7.4375 12.9375 C-6.4475 12.6075 -5.4575 12.2775 -4.4375 11.9375 C-5.4275 11.6075 -6.4175 11.2775 -7.4375 10.9375 Z " fill="#343434" transform="translate(215.4375,319.0625)"/>
<path d="M0 0 C-0.515625 0.7425 -1.03125 1.485 -1.5625 2.25 C-3.2666239 4.81827346 -3.2666239 4.81827346 -2.58984375 7.171875 C-2.29787109 8.07679688 -2.29787109 8.07679688 -2 9 C-2.62567871 9.29245605 -3.25135742 9.58491211 -3.89599609 9.88623047 C-6.72444562 11.21135986 -9.54973733 12.54309045 -12.375 13.875 C-13.35984375 14.33519531 -14.3446875 14.79539062 -15.359375 15.26953125 C-16.30039062 15.71425781 -17.24140625 16.15898437 -18.2109375 16.6171875 C-19.08024902 17.02565918 -19.94956055 17.43413086 -20.84521484 17.85498047 C-23.12871104 18.93363508 -23.12871104 18.93363508 -25 21 C-26.89865603 18.02819057 -28.35455571 15.48539917 -29 12 C-28.34 12 -27.68 12 -27 12 C-26.67 11.01 -26.34 10.02 -26 9 C-24.66666667 8.66666667 -23.33333333 8.33333333 -22 8 C-21.67 7.01 -21.34 6.02 -21 5 C-21 5.66 -21 6.32 -21 7 C-19.81921875 6.41089844 -18.6384375 5.82179687 -17.421875 5.21484375 C-15.86488617 4.45510823 -14.30757764 3.69602765 -12.75 2.9375 C-11.97269531 2.54755859 -11.19539063 2.15761719 -10.39453125 1.75585938 C-9.64042969 1.39169922 -8.88632812 1.02753906 -8.109375 0.65234375 C-7.41811523 0.31195068 -6.72685547 -0.02844238 -6.01464844 -0.37915039 C-3.62242947 -1.11635505 -2.33429153 -0.80784795 0 0 Z " fill="#ADADAD" transform="translate(330,249)"/>
<path d="M0 0 C6.84225977 3.58404083 10.58331755 9.74995264 13 17 C13.12065456 19.10163415 13.17536009 21.20744033 13.1875 23.3125 C13.20167969 24.42238281 13.21585937 25.53226562 13.23046875 26.67578125 C12.99333157 30.0961836 12.22108501 32.80973443 11 36 C10.34 35.67 9.68 35.34 9 35 C8.359375 33.03125 8.359375 33.03125 7.75 30.5 C5.7192782 23.2681438 1.45760631 17.91694171 -3 12 C-2.34 12 -1.68 12 -1 12 C-0.87625 11.21625 -0.7525 10.4325 -0.625 9.625 C0 7 0 7 2 5 C1.34 3.35 0.68 1.7 0 0 Z " fill="#52CDED" transform="translate(351,311)"/>
<path d="M0 0 C0.66 0 1.32 0 2 0 C2 1.98 2 3.96 2 6 C5.63 7.98 9.26 9.96 13 12 C13 12.99 13 13.98 13 15 C13.99 15.33 14.98 15.66 16 16 C17.75 17.6875 17.75 17.6875 19 20 C18.6875 23.25 18.6875 23.25 18 26 C15.5625 25.1875 15.5625 25.1875 13 24 C12.67 23.01 12.34 22.02 12 21 C11.44570313 21.19851563 10.89140625 21.39703125 10.3203125 21.6015625 C7.34064629 22.11322235 5.67671603 21.47059642 2.875 20.375 C2.00617188 20.05273438 1.13734375 19.73046875 0.2421875 19.3984375 C-2 18 -2 18 -3.421875 15.77734375 C-4.19608593 12.05799258 -3.35161971 9.75912797 -2.125 6.1875 C-1.73570312 5.02605469 -1.34640625 3.86460937 -0.9453125 2.66796875 C-0.63335937 1.78753906 -0.32140625 0.90710938 0 0 Z " fill="#27B5E4" transform="translate(340,284)"/>
<path d="M0 0 C0.84124316 2.24732102 1.67314832 4.49738785 2.5 6.75 C2.73847656 7.38421875 2.97695313 8.0184375 3.22265625 8.671875 C4.44801758 12.03286607 5 14.36871587 5 18 C1.27349908 18.76223883 -1.35202386 19.08088182 -5 18 C-5.33 18.33 -5.66 18.66 -6 19 C-7.99958364 19.04080783 -10.00045254 19.04254356 -12 19 C-9.83908046 6.28735632 -9.83908046 6.28735632 -8 1 C-5.29120665 -0.35439668 -2.99066732 -0.06501451 0 0 Z " fill="#4FA8CE" transform="translate(254,318)"/>
<path d="M0 0 C2.82933223 5.68498384 4.77568355 10.60698123 5 17 C4.34 17.66 3.68 18.32 3 19 C1.68 19 0.36 19 -1 19 C-1 18.34 -1 17.68 -1 17 C-2.32 17 -3.64 17 -5 17 C-5 17.66 -5 18.32 -5 19 C-6.98 19 -8.96 19 -11 19 C-10.42656355 12.80688638 -9.35902388 6.79033135 -7 1 C-4.53721199 -0.231394 -2.7204945 -0.07159196 0 0 Z " fill="#242424" transform="translate(173,318)"/>
<path d="M0 0 C0.99 0 1.98 0 3 0 C1.25 3.875 1.25 3.875 -1 5 C-1.99 4.67 -2.98 4.34 -4 4 C-4.33 5.32 -4.66 6.64 -5 8 C-4.34 8.33 -3.68 8.66 -3 9 C-3.33 9.33 -3.66 9.66 -4 10 C-3.01 10.66 -2.02 11.32 -1 12 C-12.64388698 18.59629065 -12.64388698 18.59629065 -17 18.0625 C-19.88928763 17.03921063 -21.83456848 16.16543152 -24 14 C-24 13.34 -24 12.68 -24 12 C-23.47043701 11.76812988 -22.94087402 11.53625977 -22.39526367 11.29736328 C-19.99137496 10.24284584 -17.58942866 9.18397389 -15.1875 8.125 C-14.35412109 7.76019531 -13.52074219 7.39539063 -12.66210938 7.01953125 C-11.45844727 6.48779297 -11.45844727 6.48779297 -10.23046875 5.9453125 C-9.49207764 5.62062988 -8.75368652 5.29594727 -7.99291992 4.96142578 C-5.76561139 3.94346144 -5.76561139 3.94346144 -3 2 C-2.01 2 -1.02 2 0 2 C0 1.34 0 0.68 0 0 Z " fill="#99ABB5" transform="translate(332,257)"/>
<path d="M0 0 C1.2065625 0.0309375 1.2065625 0.0309375 2.4375 0.0625 C4.29020108 3.76790216 3.97509832 8.15309908 2.87109375 12.07421875 C1.49487854 15.51115411 0.56883236 16.9749451 -2.5625 19.0625 C-5.29718533 19.58628046 -7.83488255 19.64780124 -10.5625 19.0625 C-12.5625 16.5625 -12.5625 16.5625 -13.5625 14.0625 C-11.3125 12.5 -11.3125 12.5 -8.5625 11.0625 C-6.390625 11.47265625 -6.390625 11.47265625 -4.5625 12.0625 C-4.50191406 11.28003906 -4.44132813 10.49757813 -4.37890625 9.69140625 C-4.29511719 8.67949219 -4.21132812 7.66757812 -4.125 6.625 C-4.04378906 5.61566406 -3.96257812 4.60632813 -3.87890625 3.56640625 C-3.45167428 0.1854718 -3.42707105 0.0835871 0 0 Z " fill="#4DA9CF" transform="translate(238.5625,317.9375)"/>
<path d="M0 0 C3.3 0 6.6 0 10 0 C10.33 0.99 10.66 1.98 11 3 C10.34 3.66 9.68 4.32 9 5 C6.375 4.625 6.375 4.625 4 4 C4 6.64 4 9.28 4 12 C5.32 12 6.64 12 8 12 C8 13.65 8 15.3 8 17 C5.03 17 2.06 17 -1 17 C-1.02691685 14.54159395 -1.04679802 12.08348118 -1.0625 9.625 C-1.07087891 8.92632812 -1.07925781 8.22765625 -1.08789062 7.5078125 C-1.11328125 2.2265625 -1.11328125 2.2265625 0 0 Z " fill="#1F8FC4" transform="translate(292,320)"/>
<path d="M0 0 C-0.66 1.32 -1.32 2.64 -2 4 C-2.66 4 -3.32 4 -4 4 C-4 4.66 -4 5.32 -4 6 C-6.30078125 7.7265625 -6.30078125 7.7265625 -9.3125 9.625 C-10.29863281 10.25664062 -11.28476562 10.88828125 -12.30078125 11.5390625 C-15 13 -15 13 -18 13 C-18 13.66 -18 14.32 -18 15 C-21.57457139 16.70653215 -25.16087227 18.38682599 -28.75 20.0625 C-30.27367187 20.79049805 -30.27367187 20.79049805 -31.828125 21.53320312 C-33.29765625 22.21479492 -33.29765625 22.21479492 -34.796875 22.91015625 C-36.14797363 23.54642944 -36.14797363 23.54642944 -37.52636719 24.19555664 C-40.20712664 25.06735909 -41.40058704 24.97875855 -44 24 C-42.97261719 23.49210937 -41.94523437 22.98421875 -40.88671875 22.4609375 C-34.4880369 19.28559357 -28.11252407 16.11042147 -21.875 12.625 C-18.32783249 10.65613477 -14.94026092 9.06493538 -11 8 C-11 7.34 -11 6.68 -11 6 C-9.35546875 4.4921875 -9.35546875 4.4921875 -7.1875 2.875 C-6.47980469 2.33617187 -5.77210938 1.79734375 -5.04296875 1.2421875 C-3 0 -3 0 0 0 Z " fill="#408DAF" transform="translate(350,244)"/>
<path d="M0 0 C5.60726856 1.43776117 10.66830542 4.16211861 15 8 C16.140625 10.57421875 16.140625 10.57421875 17 13 C17.66 13.66 18.32 14.32 19 15 C18.01 15.33 17.02 15.66 16 16 C14.78130071 18.50447516 14.78130071 18.50447516 14 21 C10.20411134 20.45773019 8.52788007 18.79872437 6 16 C7.32 16.33 8.64 16.66 10 17 C9.649375 16.236875 9.29875 15.47375 8.9375 14.6875 C8 12 8 12 9 9 C9.33 8.34 9.66 7.68 10 7 C9.01 7 8.02 7 7 7 C7 6.34 7 5.68 7 5 C5.68 5 4.36 5 3 5 C3 4.34 3 3.68 3 3 C2.34 3 1.68 3 1 3 C0.67 2.01 0.34 1.02 0 0 Z M6 12 C8 13 8 13 8 13 Z " fill="#39C2E9" transform="translate(336,302)"/>
<path d="M0 0 C0.99 0 1.98 0 3 0 C3 1.98 3 3.96 3 6 C4.98 6 6.96 6 9 6 C9 6.66 9 7.32 9 8 C8.360625 8.103125 7.72125 8.20625 7.0625 8.3125 C6.0415625 8.6528125 6.0415625 8.6528125 5 9 C4.67 9.99 4.34 10.98 4 12 C7.465 11.505 7.465 11.505 11 11 C11 12.65 11 14.3 11 16 C7.04 16 3.08 16 -1 16 C-1.13392857 3.67857143 -1.13392857 3.67857143 0 0 Z " fill="#238FC1" transform="translate(279,321)"/>
<path d="M0 0 C0.66 0 1.32 0 2 0 C2.99 2.31 3.98 4.62 5 7 C5.99 7 6.98 7 8 7 C8 7.66 8 8.32 8 9 C8.598125 9.268125 9.19625 9.53625 9.8125 9.8125 C11.97224808 10.98493467 13.35790256 12.19369282 15 14 C13.35 15.65 11.7 17.3 10 19 C7.3144406 16.3144406 6.93950026 13.62378672 6 10 C6 10.66 6 11.32 6 12 C5.34 12 4.68 12 4 12 C4 12.66 4 13.32 4 14 C4.66 14.33 5.32 14.66 6 15 C6 15.99 6 16.98 6 18 C5.01 18 4.02 18 3 18 C-0.81636773 12.27544841 -0.29282789 6.70250505 0 0 Z " fill="#2585B5" transform="translate(300,262)"/>
<path d="M0 0 C20.13 0 40.26 0 61 0 C60.31662075 6.83379247 59.57402791 12.49401799 58 19 C57.67 19 57.34 19 57 19 C57.33 13.06 57.66 7.12 58 1 C40.18 1.33 22.36 1.66 4 2 C4.66 3.32 5.32 4.64 6 6 C5.01 6 4.02 6 3 6 C0 2.66666667 0 2.66666667 0 0 Z " fill="#89C0DB" transform="translate(311,145)"/>
<path d="M0 0 C2.59492813 1.17190303 2.88171718 2.26025276 3.9375 4.875 C4.3515625 7.453125 4.3515625 7.453125 4.5625 10.125 C4.63726562 11.01703125 4.71203125 11.9090625 4.7890625 12.828125 C4.83804687 13.50359375 4.88703125 14.1790625 4.9375 14.875 C3.2875 15.205 1.6375 15.535 -0.0625 15.875 C-2.71364246 12.14446382 -4.8829222 9.08715017 -5.5625 4.5 C-5.3975 3.63375 -5.2325 2.7675 -5.0625 1.875 C-2.0625 -0.125 -2.0625 -0.125 0 0 Z " fill="#34CBF5" transform="translate(357.0625,320.125)"/>
<path d="M0 0 C2.31 0 4.62 0 7 0 C7.98248524 4.0527516 8.08159574 7.83861737 8 12 C4.53785351 14.05164237 3.40610765 14 -1 14 C-0.67 9.38 -0.34 4.76 0 0 Z " fill="#2B99CE" transform="translate(246,319)"/>
<path d="M0 0 C0.33 0 0.66 0 1 0 C0.85982174 2.97953359 0.71313658 5.95849304 0.5625 8.9375 C0.52318359 9.78763672 0.48386719 10.63777344 0.44335938 11.51367188 C0.40146484 12.32255859 0.35957031 13.13144531 0.31640625 13.96484375 C0.27974854 14.7137085 0.24309082 15.46257324 0.20532227 16.23413086 C0 18 0 18 -1 19 C-1.30523962 23.65088715 -1.30523962 23.65088715 0 28 C-0.27942455 29.67654729 -0.60828247 31.34608154 -1 33 C-1.66 33 -2.32 33 -3 33 C-2.34 34.65 -1.68 36.3 -1 38 C-1.99 38 -2.98 38 -4 38 C-7.11207865 33.33188202 -6.38345454 29.13789039 -5.4296875 23.8203125 C-4.66411524 20.20197622 -3.84411591 16.60080077 -3 13 C-2.71382812 11.74832031 -2.42765625 10.49664062 -2.1328125 9.20703125 C-1.42956012 6.13616252 -0.71843164 3.06734643 0 0 Z " fill="#3E9DC9" transform="translate(239,261)"/>
<path d="M0 0 C1.65 0 3.3 0 5 0 C4.52060632 4.71403788 4.03165952 8.66579301 2 13 C1.34 13 0.68 13 0 13 C0 13.99 0 14.98 0 16 C-1.65 16 -3.3 16 -5 16 C-6.35439668 13.29120665 -6.06501451 10.99066732 -6 8 C-4.35 8 -2.7 8 -1 8 C-0.67 5.36 -0.34 2.72 0 0 Z " fill="#2F97C4" transform="translate(271,320)"/>
<path d="M0 0 C-2.77280706 3.08089673 -5.06326356 4.68775452 -9 6 C-8.01 6.33 -7.02 6.66 -6 7 C-6 7.66 -6 8.32 -6 9 C-5.01 9 -4.02 9 -3 9 C-3 9.66 -3 10.32 -3 11 C-6.6125362 12.84827434 -10.2089881 14.55049545 -14 16 C-14.66 14.68 -15.32 13.36 -16 12 C-15.2575 11.1028125 -15.2575 11.1028125 -14.5 10.1875 C-12.71723582 8.02970006 -12.71723582 8.02970006 -13 5 C-12.030625 4.54625 -11.06125 4.0925 -10.0625 3.625 C-6.92920418 2.34213779 -6.92920418 2.34213779 -6 0 C-2.49056604 -1.24528302 -2.49056604 -1.24528302 0 0 Z " fill="#979796" transform="translate(342,241)"/>
<path d="M0 0 C1.65 0 3.3 0 5 0 C5 5.94 5 11.88 5 18 C3.35 18 1.7 18 0 18 C0 12.06 0 6.12 0 0 Z " fill="#090909" transform="translate(196,319)"/>
<path d="M0 0 C0.66561447 0.16076523 1.33122894 0.32153046 2.01701355 0.48716736 C5.59786153 1.10278387 9.10612135 1.17602104 12.7277832 1.20532227 C13.87004616 1.22017166 13.87004616 1.22017166 15.03538513 1.23532104 C17.54048606 1.2667882 20.04560592 1.2916347 22.55078125 1.31640625 C24.29241923 1.33698856 26.03405235 1.35798537 27.77568054 1.37937927 C32.35080018 1.43446807 36.92596391 1.48393532 41.50115967 1.53222656 C46.17333889 1.58253813 50.84545439 1.63817371 55.51757812 1.69335938 C64.67833093 1.80077951 73.83913916 1.90226009 83 2 C82.67 2.66 82.34 3.32 82 4 C71.7513135 3.93884249 61.50288279 3.8617753 51.25447369 3.76428509 C46.49591953 3.71952064 41.7374522 3.68027806 36.97875977 3.65356445 C32.38799704 3.62759188 27.79756734 3.5872328 23.20701027 3.53681374 C21.45393828 3.52010397 19.70080863 3.50861535 17.94766808 3.50238609 C15.49559836 3.49278941 13.04438858 3.4647848 10.5925293 3.43237305 C9.50064552 3.43452568 9.50064552 3.43452568 8.38670349 3.4367218 C3.44491989 3.34408289 3.44491989 3.34408289 1.02546692 1.47297668 C0.68706284 0.98689438 0.34865875 0.50081207 0 0 Z " fill="#63A6C4" transform="translate(237,300)"/>
<path d="M0 0 C1.32 0.33 2.64 0.66 4 1 C3.67 2.65 3.34 4.3 3 6 C4.65 5.34 6.3 4.68 8 4 C5.36717293 7.9492406 2.39198156 9.36520686 -2 11 C-5.5 11.25 -5.5 11.25 -8 11 C-8 8.37886292 -7.68707555 6.49064888 -7 4 C-5.824375 3.8453125 -5.824375 3.8453125 -4.625 3.6875 C-1.66954819 3.22404978 -1.66954819 3.22404978 0 0 Z " fill="#9FA09E" transform="translate(335,257)"/>
<path d="M0 0 C0.33 0.99 0.66 1.98 1 3 C2.32 3.33 3.64 3.66 5 4 C3.68 6.64 2.36 9.28 1 12 C0.01 11.67 -0.98 11.34 -2 11 C-2 12.65 -2 14.3 -2 16 C-5.86107457 13.42595029 -5.94319692 11.38979741 -7 7 C-6.34 7 -5.68 7 -5 7 C-4.67 6.01 -4.34 5.02 -4 4 C-1.9375 3.3125 -1.9375 3.3125 0 3 C0 2.01 0 1.02 0 0 Z " fill="#C0C3C4" transform="translate(308,254)"/>
<path d="M0 0 C1.65 0 3.3 0 5 0 C6.86987216 3.73974432 6.30641834 8.46790828 5.5 12.5 C5.335 12.995 5.17 13.49 5 14 C3.35 14 1.7 14 0 14 C0 9.38 0 4.76 0 0 Z " fill="#59A7C7" transform="translate(236,318)"/>
<path d="M0 0 C6.6 0 13.2 0 20 0 C21.10191901 4.40767604 20.58706842 5.8922935 19 10 C18.34 10 17.68 10 17 10 C16.67 7.69 16.34 5.38 16 3 C15.46375 3.185625 14.9275 3.37125 14.375 3.5625 C11.33640208 4.12224172 9.02863069 3.59384915 6 3 C3.66742506 2.66140041 1.33425788 2.3267961 -1 2 C-0.67 1.34 -0.34 0.68 0 0 Z " fill="#218DBD" transform="translate(278,273)"/>
<path d="M0 0 C2.70650171 1.1840945 3.64934375 2.24477467 5 4.875 C4.6875 8.125 4.6875 8.125 4 10.875 C1.5625 10.0625 1.5625 10.0625 -1 8.875 C-1.33 7.885 -1.66 6.895 -2 5.875 C-2.598125 6.101875 -3.19625 6.32875 -3.8125 6.5625 C-4.534375 6.665625 -5.25625 6.76875 -6 6.875 C-7.75 5.4375 -7.75 5.4375 -9 3.875 C-8.1028125 3.441875 -8.1028125 3.441875 -7.1875 3 C-1.20743034 -0.0754644 -1.20743034 -0.0754644 0 0 Z " fill="#2EC4EF" transform="translate(354,299.125)"/>
<path d="M0 0 C0 0.66 0 1.32 0 2 C-1.32 2.33 -2.64 2.66 -4 3 C-3.67 3.99 -3.34 4.98 -3 6 C-3.66 6.66 -4.32 7.32 -5 8 C-4.01 8.33 -3.02 8.66 -2 9 C-2 9.66 -2 10.32 -2 11 C-7.445 13.475 -7.445 13.475 -13 16 C-13.33 15.01 -13.66 14.02 -14 13 C-13.01 13 -12.02 13 -11 13 C-10.01 10.69 -9.02 8.38 -8 6 C-8.99 5.34 -9.98 4.68 -11 4 C-9.5437455 3.32880451 -8.08492133 2.66318193 -6.625 2 C-5.81289063 1.62875 -5.00078125 1.2575 -4.1640625 0.875 C-2 0 -2 0 0 0 Z " fill="#B4B8B9" transform="translate(320,252)"/>
<path d="M0 0 C0.66 0 1.32 0 2 0 C3.09995958 3.29987875 3.16747591 5.84032287 3.1875 9.3125 C3.20167969 10.42238281 3.21585937 11.53226562 3.23046875 12.67578125 C2.99333157 16.0961836 2.22108501 18.80973443 1 22 C0.34 21.67 -0.32 21.34 -1 21 C-1.6328125 18.71484375 -1.6328125 18.71484375 -2.125 15.9375 C-2.29257812 15.01839844 -2.46015625 14.09929687 -2.6328125 13.15234375 C-2.75398438 12.44207031 -2.87515625 11.73179687 -3 11 C-2.01 10.67 -1.02 10.34 0 10 C0 6.7 0 3.4 0 0 Z " fill="#70DAEF" transform="translate(361,325)"/>
<path d="M0 0 C-0.375 2.4375 -0.375 2.4375 -1 5 C-1.99 5.495 -1.99 5.495 -3 6 C-1.02 6 0.96 6 3 6 C1.4375 7.5625 1.4375 7.5625 -1 9 C-5.52689878 8.83832504 -8.73945678 8.26054322 -12 5 C-12 4.34 -12 3.68 -12 3 C-4.71428571 -0.42857143 -4.71428571 -0.42857143 0 0 Z " fill="#AFC0C7" transform="translate(320,266)"/>
<path d="M0 0 C0.66 0 1.32 0 2 0 C2.33 3.96 2.66 7.92 3 12 C3.66 12 4.32 12 5 12 C5 12.66 5 13.32 5 14 C2.35261084 15.4606285 1.10551666 16 -2 16 C-2.2396943 10.36718401 -1.38529821 5.45461169 0 0 Z " fill="#3F9DC4" transform="translate(311,240)"/>
<path d="M0 0 C-0.66 1.32 -1.32 2.64 -2 4 C-2.66 4 -3.32 4 -4 4 C-4 4.66 -4 5.32 -4 6 C-6.23046875 7.69140625 -6.23046875 7.69140625 -9.1875 9.5625 C-10.15042969 10.18253906 -11.11335938 10.80257812 -12.10546875 11.44140625 C-14.83595315 12.91166708 -16.949475 13.59289154 -20 14 C-20 13.34 -20 12.68 -20 12 C-13.25 8 -13.25 8 -11 8 C-11 7.34 -11 6.68 -11 6 C-9.35546875 4.4921875 -9.35546875 4.4921875 -7.1875 2.875 C-6.47980469 2.33617187 -5.77210938 1.79734375 -5.04296875 1.2421875 C-3 0 -3 0 0 0 Z " fill="#4588A6" transform="translate(350,244)"/>
<path d="M0 0 C0.66 0 1.32 0 2 0 C2.29201904 4.96432365 2.14707573 8.03701574 -1 12 C-1.99 12.33 -2.98 12.66 -4 13 C-4 11.68 -4 10.36 -4 9 C-5.32 9 -6.64 9 -8 9 C-8 8.34 -8 7.68 -8 7 C-6.35 6.67 -4.7 6.34 -3 6 C-3 5.01 -3 4.02 -3 3 C-2.34 3 -1.68 3 -1 3 C-0.67 2.01 -0.34 1.02 0 0 Z " fill="#62B0D0" transform="translate(304,323)"/>
<path d="M0 0 C2.475 0.99 2.475 0.99 5 2 C4.67 3.32 4.34 4.64 4 6 C3.34 6 2.68 6 2 6 C1.34 4.02 0.68 2.04 0 0 Z M-4 4 C-1.13275314 4.57344937 -0.1385485 4.8614515 2 7 C0.02 7.99 0.02 7.99 -2 9 C-2 9.66 -2 10.32 -2 11 C-7.75 9.125 -7.75 9.125 -10 8 C-9.67 7.01 -9.34 6.02 -9 5 C-5.125 5.875 -5.125 5.875 -4 7 C-4 6.01 -4 5.02 -4 4 Z " fill="#46BADF" transform="translate(348,294)"/>
<path d="M0 0 C0.99 0.33 1.98 0.66 3 1 C2.34 1 1.68 1 1 1 C1 1.66 1 2.32 1 3 C1.66 3.33 2.32 3.66 3 4 C1.8125 6.5 1.8125 6.5 0 9 C-2.6875 9.3125 -2.6875 9.3125 -5 9 C-5 8.34 -5 7.68 -5 7 C-6.32 6.67 -7.64 6.34 -9 6 C-8.34 5.34 -7.68 4.68 -7 4 C-5.68 4 -4.36 4 -3 4 C-2.67 3.01 -2.34 2.02 -2 1 C-1.34 0.67 -0.68 0.34 0 0 Z " fill="#858887" transform="translate(341,241)"/>
<path d="M0 0 C3.3 0 6.6 0 10 0 C10 0.33 10 0.66 10 1 C7.03 1 4.06 1 1 1 C1 5.62 1 10.24 1 15 C3.31 15 5.62 15 8 15 C8 15.66 8 16.32 8 17 C5.03 17 2.06 17 -1 17 C-1.02691685 14.54159395 -1.04679802 12.08348118 -1.0625 9.625 C-1.07087891 8.92632812 -1.07925781 8.22765625 -1.08789062 7.5078125 C-1.11328125 2.2265625 -1.11328125 2.2265625 0 0 Z " fill="#4095BB" transform="translate(292,320)"/>
<path d="M0 0 C0.99 0.33 1.98 0.66 3 1 C3 1.66 3 2.32 3 3 C4.32 3 5.64 3 7 3 C7 3.66 7 4.32 7 5 C7.99 5 8.98 5 10 5 C9 8 9 8 8 10 C7.01 10 6.02 10 5 10 C5 9.01 5 8.02 5 7 C3.68 7.33 2.36 7.66 1 8 C0.67 7.01 0.34 6.02 0 5 C0.33 4.67 0.66 4.34 1 4 C0.34 3.67 -0.32 3.34 -1 3 C-0.67 2.01 -0.34 1.02 0 0 Z " fill="#26B2DF" transform="translate(336,304)"/>
<path d="M0 0 C0.33 1.98 0.66 3.96 1 6 C0.01 6 -0.98 6 -2 6 C-2 6.66 -2 7.32 -2 8 C-3.65 8.66 -5.3 9.32 -7 10 C-6.39169139 3.55192878 -6.39169139 3.55192878 -4.625 1.0625 C-3 0 -3 0 0 0 Z " fill="#868A89" transform="translate(345,253)"/>
<path d="M0 0 C1.17629657 3.47525916 0.81182496 5.87491481 0.00390625 9.421875 C-0.33930664 10.95908203 -0.33930664 10.95908203 -0.68945312 12.52734375 C-0.93630859 13.59082031 -1.18316406 14.65429688 -1.4375 15.75 C-1.68048828 16.82894531 -1.92347656 17.90789062 -2.17382812 19.01953125 C-2.77456295 21.68161107 -3.38355513 24.34152209 -4 27 C-4.33 27 -4.66 27 -5 27 C-5.20938483 16.94952805 -4.06362112 9.22347492 0 0 Z " fill="#65B0D0" transform="translate(365,174)"/>
<path d="M0 0 C0.33 0 0.66 0 1 0 C1.45356243 6.46326465 0.59378942 9.60931587 -3 15 C-3.33 14.34 -3.66 13.68 -4 13 C-4.66 13 -5.32 13 -6 13 C-6 13.66 -6 14.32 -6 15 C-6.99 14.67 -7.98 14.34 -9 14 C-8.23883449 12.84772177 -7.46567307 11.7033614 -6.6875 10.5625 C-6.25824219 9.92441406 -5.82898438 9.28632813 -5.38671875 8.62890625 C-4 7 -4 7 -1 6 C-0.67 4.02 -0.34 2.04 0 0 Z " fill="#8A8B8A" transform="translate(355,227)"/>
<path d="M0 0 C0.33 0 0.66 0 1 0 C1.05441656 1.89551022 1.09298035 3.7914792 1.125 5.6875 C1.14820313 6.74324219 1.17140625 7.79898437 1.1953125 8.88671875 C0.99858729 12.02251859 0.33057654 14.17645373 -1 17 C-2.61725534 13.99049877 -3.67582623 11.02896392 -4.625 7.75 C-5.01558594 6.41195313 -5.01558594 6.41195313 -5.4140625 5.046875 C-5.60742188 4.37140625 -5.80078125 3.6959375 -6 3 C-5.01 3.33 -4.02 3.66 -3 4 C-1.8125 6.5625 -1.8125 6.5625 -1 9 C-0.67 6.03 -0.34 3.06 0 0 Z " fill="#A0E6F5" transform="translate(368,318)"/>
<path d="M0 0 C0.433125 0.61875 0.86625 1.2375 1.3125 1.875 C2.99740483 4.2197245 2.99740483 4.2197245 6 6 C5.67 6.66 5.34 7.32 5 8 C4.34 8 3.68 8 3 8 C3 8.66 3 9.32 3 10 C3.66 10.33 4.32 10.66 5 11 C5 11.99 5 12.98 5 14 C4.01 14 3.02 14 2 14 C0.09391902 10.78817851 -0.22266247 8.46117397 -0.125 4.75 C-0.09792969 3.41195313 -0.09792969 3.41195313 -0.0703125 2.046875 C-0.04710937 1.37140625 -0.02390625 0.6959375 0 0 Z " fill="#0C79B3" transform="translate(301,266)"/>
<path d="M0 0 C0.53625 0.226875 1.0725 0.45375 1.625 0.6875 C1.109375 1.450625 0.59375 2.21375 0.0625 3 C-0.411875 3.886875 -0.88625 4.77375 -1.375 5.6875 C-1.045 6.6775 -0.715 7.6675 -0.375 8.6875 C-1.695 9.0175 -3.015 9.3475 -4.375 9.6875 C-4.375 8.6975 -4.375 7.7075 -4.375 6.6875 C-5.035 6.3575 -5.695 6.0275 -6.375 5.6875 C-5.715 5.6875 -5.055 5.6875 -4.375 5.6875 C-4.375 5.0275 -4.375 4.3675 -4.375 3.6875 C-5.695 3.3575 -7.015 3.0275 -8.375 2.6875 C-2.95961538 -0.38942308 -2.95961538 -0.38942308 0 0 Z " fill="#95A0A9" transform="translate(328.375,248.3125)"/>
<path d="M0 0 C1.32 0 2.64 0 4 0 C4 0.66 4 1.32 4 2 C7.465 1.505 7.465 1.505 11 1 C7.87511433 3.52394612 4.68685613 5.39701907 1 7 C0.34 6.67 -0.32 6.34 -1 6 C-1.042721 4.33388095 -1.04063832 2.66617115 -1 1 C-0.67 0.67 -0.34 0.34 0 0 Z " fill="#218FBB" transform="translate(317,246)"/>
<path d="M0 0 C0.91058531 3.07322544 1.08886184 5.80097361 1 9 C2.65 9.33 4.3 9.66 6 10 C5.01 10.33 4.02 10.66 3 11 C3 11.99 3 12.98 3 14 C1.02 14 -0.96 14 -3 14 C-2.69024532 12.22868439 -2.37709575 10.45796222 -2.0625 8.6875 C-1.88847656 7.70136719 -1.71445313 6.71523438 -1.53515625 5.69921875 C-1 3 -1 3 0 0 Z " fill="#52A5C6" transform="translate(245,323)"/>
<path d="M0 0 C1.32 0.33 2.64 0.66 4 1 C4.33 2.32 4.66 3.64 5 5 C4.34 5 3.68 5 3 5 C3 5.66 3 6.32 3 7 C0.36 7.33 -2.28 7.66 -5 8 C-5 7.01 -5 6.02 -5 5 C-4.01 4.67 -3.02 4.34 -2 4 C-0.79117904 1.99983534 -0.79117904 1.99983534 0 0 Z " fill="#AFB1B3" transform="translate(321,265)"/>
<path d="M0 0 C0.9075 0.226875 1.815 0.45375 2.75 0.6875 C2.75 1.3475 2.75 2.0075 2.75 2.6875 C0.77 3.0175 -1.21 3.3475 -3.25 3.6875 C-2.92 4.3475 -2.59 5.0075 -2.25 5.6875 C0.77934491 6.34522428 0.77934491 6.34522428 3.75 6.6875 C3.75 7.0175 3.75 7.3475 3.75 7.6875 C-1.62305699 8.12791451 -1.62305699 8.12791451 -4.25 7.6875 C-6.25 5.1875 -6.25 5.1875 -7.25 2.6875 C-4.61280971 0.1517401 -3.74095095 -0.35970682 0 0 Z " fill="#69AFCB" transform="translate(232.25,329.3125)"/>
<path d="M0 0 C3.06081203 2.75473082 4.89882863 4.99574049 6 9 C5.75 11.25 5.75 11.25 5 13 C4.01 13.495 4.01 13.495 3 14 C3 11.69 3 9.38 3 7 C2.34 7 1.68 7 1 7 C1 6.01 1 5.02 1 4 C0.01 4 -0.98 4 -2 4 C-2 3.34 -2 2.68 -2 2 C-1.34 2 -0.68 2 0 2 C0 1.34 0 0.68 0 0 Z " fill="#73D9F3" transform="translate(362,305)"/>
<path d="M0 0 C0 1.65 0 3.3 0 5 C-0.66 5 -1.32 5 -2 5 C-2 6.98 -2 8.96 -2 11 C-2.33 11 -2.66 11 -3 11 C-3.66 9.02 -4.32 7.04 -5 5 C-6.98 5.33 -8.96 5.66 -11 6 C-7.88264342 2.55450062 -4.75616064 0 0 0 Z " fill="#288DBB" transform="translate(346,261)"/>
<path d="M0 0 C5.80342274 1.48805711 10.17590879 4.59097555 15 8 C11.28125 9.1171875 11.28125 9.1171875 8.75 8.0625 C8.1725 7.711875 7.595 7.36125 7 7 C7 6.34 7 5.68 7 5 C5.68 5 4.36 5 3 5 C3 4.34 3 3.68 3 3 C2.34 3 1.68 3 1 3 C0.67 2.01 0.34 1.02 0 0 Z " fill="#60C5E4" transform="translate(336,302)"/>
<path d="M0 0 C0.33 0 0.66 0 1 0 C0.97679687 1.19238281 0.95359375 2.38476562 0.9296875 3.61328125 C0.91092822 5.17968124 0.89272819 6.746088 0.875 8.3125 C0.85824219 9.09818359 0.84148437 9.88386719 0.82421875 10.69335938 C0.81777344 11.45068359 0.81132812 12.20800781 0.8046875 12.98828125 C0.79421387 13.68477783 0.78374023 14.38127441 0.77294922 15.09887695 C0.89425405 17.331173 0.89425405 17.331173 3 20 C2.01 20 1.02 20 0 20 C-2.91879341 15.62180989 -2.44570491 11.48211525 -1.546875 6.4765625 C-1.06767908 4.30648956 -0.55769585 2.15111255 0 0 Z " fill="#66AFCD" transform="translate(235,279)"/>
<path d="M0 0 C0 0.99 0 1.98 0 3 C0.66 3 1.32 3 2 3 C2 4.65 2 6.3 2 8 C1.01 8 0.02 8 -1 8 C-1 7.01 -1 6.02 -1 5 C-2.65 4.67 -4.3 4.34 -6 4 C-5.67 3.01 -5.34 2.02 -5 1 C-3 0 -3 0 0 0 Z " fill="#31CCF5" transform="translate(363,309)"/>
<path d="M0 0 C0.8971875 0.309375 0.8971875 0.309375 1.8125 0.625 C0.8225 0.955 -0.1675 1.285 -1.1875 1.625 C-1.92073796 3.64008358 -1.92073796 3.64008358 -2.1875 5.625 C-4 6.3125 -4 6.3125 -6.1875 6.625 C-7.9375 5.1875 -7.9375 5.1875 -9.1875 3.625 C-8.2903125 3.191875 -8.2903125 3.191875 -7.375 2.75 C-1.52083333 -0.26071429 -1.52083333 -0.26071429 0 0 Z " fill="#2CBBE5" transform="translate(354.1875,299.375)"/>
<path d="M0 0 C3.9492568 0.55105909 7.34920174 1.38935371 11 3 C11 2.34 11 1.68 11 1 C12.32 1.33 13.64 1.66 15 2 C13.02 2.99 13.02 2.99 11 4 C11.33 4.99 11.66 5.98 12 7 C7.69235185 5.43358249 3.93828536 3.31663844 0 1 C0 0.67 0 0.34 0 0 Z " fill="#50B5DB" transform="translate(323,306)"/>
<path d="M0 0 C0.66 0.33 1.32 0.66 2 1 C2.40729228 3.32156597 2.74438677 5.6568787 3 8 C1.35 8.66 -0.3 9.32 -2 10 C-3.26066301 6.21801096 -2.42292658 4.63636792 -1 1 C-0.67 0.67 -0.34 0.34 0 0 Z " fill="#22ACDC" transform="translate(339,290)"/>
<path d="M0 0 C0.33 0 0.66 0 1 0 C0.67 5.61 0.34 11.22 0 17 C-0.99 17.33 -1.98 17.66 -3 18 C-2.41509121 11.85845775 -1.45933748 5.99320151 0 0 Z " fill="#5FACCE" transform="translate(243,243)"/>
<path d="M0 0 C0.66 0.33 1.32 0.66 2 1 C-1.57754493 3.2096601 -5.22194036 5.15490111 -9 7 C-9.66 6.01 -10.32 5.02 -11 4 C-9.9375 2.5 -9.9375 2.5 -8 1 C-4.375 0.875 -4.375 0.875 -1 1 C-0.67 0.67 -0.34 0.34 0 0 Z " fill="#8298A0" transform="translate(341,261)"/>
<path d="M0 0 C0.99 0 1.98 0 3 0 C2.41509121 6.14154225 1.45933748 12.00679849 0 18 C-0.33 18 -0.66 18 -1 18 C-0.505 9.09 -0.505 9.09 0 0 Z " fill="#69AFCE" transform="translate(369,146)"/>
<path d="M0 0 C0.66 0 1.32 0 2 0 C2 1.98 2 3.96 2 6 C3.98 6.99 5.96 7.98 8 9 C5 11 5 11 1 11 C-1.42857143 3.57142857 -1.42857143 3.57142857 0 0 Z " fill="#59B7D9" transform="translate(340,284)"/>
<path d="M0 0 C0.33 0 0.66 0 1 0 C1.09765625 6.15234375 1.09765625 6.15234375 1 8 C0.67 8.33 0.34 8.66 0 9 C-0.36760731 11.32817964 -0.70241581 13.6618385 -1 16 C-3 14 -3 14 -3.046875 12.01171875 C-2.49925341 7.72441811 -1.90566194 3.93836801 0 0 Z " fill="#52A5CB" transform="translate(324,185)"/>
<path d="M0 0 C3 1 3 1 4 3 C4.99 3.33 5.98 3.66 7 4 C5.73581754 4.69965443 4.46334598 5.38434763 3.1875 6.0625 C2.47980469 6.44535156 1.77210938 6.82820313 1.04296875 7.22265625 C-1 8 -1 8 -4 7 C-3.67 6.34 -3.34 5.68 -3 5 C-1.68 5 -0.36 5 1 5 C0.34 3.68 -0.32 2.36 -1 1 C-0.67 0.67 -0.34 0.34 0 0 Z " fill="#9DAAB0" transform="translate(321,254)"/>
<path d="M0 0 C0.66 0 1.32 0 2 0 C2 2.31 2 4.62 2 7 C1.34 7 0.68 7 0 7 C-0.33 7.66 -0.66 8.32 -1 9 C-1.99 8.67 -2.98 8.34 -4 8 C-3.67 6.35 -3.34 4.7 -3 3 C-2.34 3 -1.68 3 -1 3 C-0.67 2.01 -0.34 1.02 0 0 Z " fill="#43A1C9" transform="translate(304,323)"/>
<path d="M0 0 C-2.80228148 3.11364609 -5.07826421 4.59219741 -9 6 C-9.99 6.66 -10.98 7.32 -12 8 C-12.66 7.34 -13.32 6.68 -14 6 C-12.20963542 5.0234375 -10.41927083 4.046875 -8.62890625 3.0703125 C-6.83381685 2.08589976 -6.83381685 2.08589976 -6 0 C-2.49056604 -1.24528302 -2.49056604 -1.24528302 0 0 Z " fill="#6492A4" transform="translate(342,241)"/>
<path d="M0 0 C3.64553172 1.2808625 5.16671013 2.16671013 8 5 C5.03 5 2.06 5 -1 5 C-0.67 3.35 -0.34 1.7 0 0 Z " fill="#63ABCC" transform="translate(248,223)"/>
<path d="M0 0 C0.66 0 1.32 0 2 0 C2 0.66 2 1.32 2 2 C2.99 2 3.98 2 5 2 C5 2.66 5 3.32 5 4 C1.3874638 5.84827434 -2.2089881 7.55049545 -6 9 C-6 8.34 -6 7.68 -6 7 C-5.195625 6.54625 -4.39125 6.0925 -3.5625 5.625 C-0.84763807 4.26579005 -0.84763807 4.26579005 -0.1875 1.8125 C-0.125625 1.214375 -0.06375 0.61625 0 0 Z " fill="#7F949E" transform="translate(334,248)"/>
<path d="M0 0 C0.66 0 1.32 0 2 0 C1.48517081 5.852795 0.54642808 11.3297637 -1 17 C-3 14 -3 14 -2.5390625 10.64453125 C-2.23742187 9.37996094 -1.93578125 8.11539063 -1.625 6.8125 C-1.32851563 5.54019531 -1.03203125 4.26789063 -0.7265625 2.95703125 C-0.48679687 1.98121094 -0.24703125 1.00539062 0 0 Z " fill="#6EB4D3" transform="translate(357,206)"/>
<path d="M0 0 C1.98 0 3.96 0 6 0 C6 0.33 6 0.66 6 1 C4.35 1 2.7 1 1 1 C1 3.64 1 6.28 1 9 C-0.32 9.33 -1.64 9.66 -3 10 C-2.21302675 6.58978257 -1.12880057 3.31114834 0 0 Z " fill="#65AFCE" transform="translate(270,319)"/>
<path d="M0 0 C3.48331435 3.01887244 4.79157144 5.56909529 6 10 C5.34 10 4.68 10 4 10 C3.67 8.68 3.34 7.36 3 6 C1.35 5.67 -0.3 5.34 -2 5 C-2 4.34 -2 3.68 -2 3 C-1.34 3 -0.68 3 0 3 C0 2.01 0 1.02 0 0 Z " fill="#61D2F1" transform="translate(356,315)"/>
<path d="M0 0 C2.31 0.66 4.62 1.32 7 2 C7.625 4.375 7.625 4.375 8 7 C7.34 7.66 6.68 8.32 6 9 C4.02 6.03 2.04 3.06 0 0 Z " fill="#61D3EF" transform="translate(355,312)"/>
<path d="M0 0 C0.66 0 1.32 0 2 0 C2 0.66 2 1.32 2 2 C4.97 2.495 4.97 2.495 8 3 C7.34 4.98 6.68 6.96 6 9 C3.59927045 6.11912454 1.52708963 3.43595166 0 0 Z " fill="#65D4F1" transform="translate(352,327)"/>
<path d="M0 0 C0.66 0 1.32 0 2 0 C2 3.63 2 7.26 2 11 C1.01 11 0.02 11 -1 11 C-0.67 7.37 -0.34 3.74 0 0 Z " fill="#198FC9" transform="translate(237,321)"/>
<path d="M0 0 C0.66 0.33 1.32 0.66 2 1 C1.41196203 4.02419525 0.77321882 7.01758453 0 10 C-0.66 10 -1.32 10 -2 10 C-2.25 3.375 -2.25 3.375 0 0 Z " fill="#0A7BB3" transform="translate(297,273)"/>
<path d="M0 0 C0.33 0 0.66 0 1 0 C2.42258812 3.82320557 3.24042276 6.91281305 3 11 C-0.86107457 8.42595029 -0.94319692 6.38979741 -2 2 C-1.34 2 -0.68 2 0 2 C0 1.34 0 0.68 0 0 Z " fill="#DCEDF3" transform="translate(303,259)"/>
<path d="M0 0 C0.33 0 0.66 0 1 0 C1 3.96 1 7.92 1 12 C0.01 12.33 -0.98 12.66 -2 13 C-1.85769192 11.58297487 -1.71099254 10.1663904 -1.5625 8.75 C-1.48128906 7.96109375 -1.40007812 7.1721875 -1.31640625 6.359375 C-1.02365007 4.17635361 -0.57935581 2.1226818 0 0 Z " fill="#68B3D2" transform="translate(246,229)"/>
<path d="M0 0 C0.66 0 1.32 0 2 0 C2 0.99 2 1.98 2 3 C2.66 3.33 3.32 3.66 4 4 C2.625 5.5 2.625 5.5 1 7 C0.34 7 -0.32 7 -1 7 C-1.33 7.66 -1.66 8.32 -2 9 C-2.125 6.625 -2.125 6.625 -2 4 C-1.34 3.34 -0.68 2.68 0 2 C0 1.34 0 0.68 0 0 Z " fill="#949898" transform="translate(349,251)"/>
<path d="M0 0 C2.97 0 5.94 0 9 0 C9.33 0.66 9.66 1.32 10 2 C9.34 2.66 8.68 3.32 8 4 C6.02 3.34 4.04 2.68 2 2 C1.34 2.66 0.68 3.32 0 4 C0 2.68 0 1.36 0 0 Z " fill="#1890C7" transform="translate(293,321)"/>
<path d="M0 0 C0.66 0.33 1.32 0.66 2 1 C0.58755 3.8249 -1.22778731 4.55088882 -4 6 C-6.8125 6.6875 -6.8125 6.6875 -9 7 C-6.3765992 4.08511023 -3.28183606 2.11496102 0 0 Z " fill="#718F9E" transform="translate(344,250)"/>
<path d="M0 0 C1.98 0 3.96 0 6 0 C4.84826645 2.46800047 3.95216435 4.04783565 2 6 C1.34 4.02 0.68 2.04 0 0 Z " fill="#248FB9" transform="translate(247,319)"/>
<path d="M0 0 C3.98175544 2.10148204 6.35039045 4.36905358 9 8 C7.35 8 5.7 8 4 8 C3.71125 7.195625 3.4225 6.39125 3.125 5.5625 C2.26737432 2.8673532 2.26737432 2.8673532 0 2 C0 1.34 0 0.68 0 0 Z " fill="#82D8ED" transform="translate(353,297)"/>
<path d="M0 0 C-0.33 1.65 -0.66 3.3 -1 5 C-3.88437779 3.70700306 -5.87219421 2.34058637 -8 0 C-2.25 -1.125 -2.25 -1.125 0 0 Z " fill="#59C9EA" transform="translate(354,305)"/>
<path d="M0 0 C3.96 0 7.92 0 12 0 C8 3 8 3 4.3125 2.8125 C3.219375 2.544375 2.12625 2.27625 1 2 C0.67 1.34 0.34 0.68 0 0 Z " fill="#97BBCE" transform="translate(311,272)"/>
<path d="M0 0 C2.97 0.495 2.97 0.495 6 1 C2.8745041 3.64465038 -0.08788267 4.84414715 -4 6 C-4 5.01 -4 4.02 -4 3 C-3.01 3 -2.02 3 -1 3 C-0.67 2.01 -0.34 1.02 0 0 Z " fill="#A7BECC" transform="translate(310,262)"/>
<path d="M0 0 C0.33 0 0.66 0 1 0 C1 2.64 1 5.28 1 8 C-0.65 8 -2.3 8 -4 8 C-4 7.34 -4 6.68 -4 6 C-3.34 6 -2.68 6 -2 6 C-1.34 4.02 -0.68 2.04 0 0 Z " fill="#5D6E78" transform="translate(354,226)"/>
<path d="M0 0 C2 3 2 3 2 7 C0.02 7.33 -1.96 7.66 -4 8 C-4 7.34 -4 6.68 -4 6 C-3.01 6 -2.02 6 -1 6 C-0.67 4.02 -0.34 2.04 0 0 Z " fill="#71B6D3" transform="translate(257,329)"/>
<path d="M0 0 C0.99 0 1.98 0 3 0 C3 1.98 3 3.96 3 6 C1.68 5.67 0.36 5.34 -1 5 C-0.67 3.35 -0.34 1.7 0 0 Z " fill="#1F8FC2" transform="translate(262,321)"/>
<path d="M0 0 C1.98 0.495 1.98 0.495 4 1 C3.67 2.65 3.34 4.3 3 6 C2.01 6 1.02 6 0 6 C-1.125 2.25 -1.125 2.25 0 0 Z " fill="#949197" transform="translate(335,257)"/>
<path d="M0 0 C0.99 0 1.98 0 3 0 C2.3125 1.9375 2.3125 1.9375 1 4 C-1.87939419 4.93580311 -3.25509788 5.37245106 -6 4 C-3 2 -3 2 0 2 C0 1.34 0 0.68 0 0 Z " fill="#839FAD" transform="translate(332,257)"/>
<path d="M0 0 C0 0.66 0 1.32 0 2 C-3.71973879 4.84450614 -6.37390802 5.3227506 -11 5 C-3.5 0 -3.5 0 0 0 Z " fill="#95B5C7" transform="translate(320,252)"/>
<path d="M0 0 C1.98 0.99 1.98 0.99 4 2 C3.67 3.65 3.34 5.3 3 7 C2.01 6.67 1.02 6.34 0 6 C0 4.02 0 2.04 0 0 Z " fill="#1891C8" transform="translate(265,328)"/>
<path d="M0 0 C0.33 0.99 0.66 1.98 1 3 C1.99 3 2.98 3 4 3 C3.67 4.32 3.34 5.64 3 7 C1.68 6.67 0.36 6.34 -1 6 C-0.67 4.02 -0.34 2.04 0 0 Z " fill="#268DBE" transform="translate(246,323)"/>
<path d="M0 0 C2.475 0.99 2.475 0.99 5 2 C4.67 3.32 4.34 4.64 4 6 C3.34 6 2.68 6 2 6 C1.34 4.02 0.68 2.04 0 0 Z M0 6 C0.99 6.495 0.99 6.495 2 7 C1.01 7.495 1.01 7.495 0 8 C0 7.34 0 6.68 0 6 Z " fill="#57C5E5" transform="translate(348,294)"/>
<path d="M0 0 C0.66 1.32 1.32 2.64 2 4 C0.6875 5.5 0.6875 5.5 -1 7 C-1.99 7 -2.98 7 -4 7 C-4 6.01 -4 5.02 -4 4 C-2.68 3.67 -1.36 3.34 0 3 C0 2.01 0 1.02 0 0 Z " fill="#CBD2D3" transform="translate(308,254)"/>
<path d="M0 0 C3.37503669 1.1858237 5.64722731 2.27573689 8 5 C7.01 5.495 7.01 5.495 6 6 C6 5.34 6 4.68 6 4 C5.01 4.33 4.02 4.66 3 5 C1.5 3.625 1.5 3.625 0 2 C0 1.34 0 0.68 0 0 Z " fill="#63AECF" transform="translate(266,234)"/>
<path d="M0 0 C-0.33 0.99 -0.66 1.98 -1 3 C-1.99 2.67 -2.98 2.34 -4 2 C-4.66 3.32 -5.32 4.64 -6 6 C-6.33 4.68 -6.66 3.36 -7 2 C-4.35261084 0.5393715 -3.10551666 0 0 0 Z " fill="#7ABAD7" transform="translate(266,319)"/>
<path d="M0 0 C-1 3 -1 3 -2 5 C-2.99 5 -3.98 5 -5 5 C-5 3.68 -5 2.36 -5 1 C-3 0 -3 0 0 0 Z " fill="#27B8EA" transform="translate(346,309)"/>
<path d="M0 0 C0.99 0 1.98 0 3 0 C2.34 1.32 1.68 2.64 1 4 C0.34 4 -0.32 4 -1 4 C-1 4.66 -1 5.32 -1 6 C-1.66 6 -2.32 6 -3 6 C-1.125 1.125 -1.125 1.125 0 0 Z " fill="#3D86A7" transform="translate(347,244)"/>
</svg>
